<svg xmlns="http://www.w3.org/2000/svg" width="214.81" height="35" viewBox="0 0 214.81 35"><rect class="svg__rect" x="0" y="0" width="115.31" height="35" fill="#F37731"/><rect class="svg__rect" x="113.31" y="0" width="101.50000000000001" height="35" fill="#059E9D"/><path class="svg__text" d="M15.69 22L14.22 22L14.22 13.47L16.14 13.47L18.60 20.01L21.06 13.47L22.97 13.47L22.97 22L21.49 22L21.49 19.19L21.64 15.43L19.12 22L18.06 22L15.55 15.43L15.69 19.19L15.69 22ZM28.49 22L26.95 22L30.17 13.47L31.50 13.47L34.73 22L33.18 22L32.49 20.01L29.18 20.01L28.49 22ZM30.83 15.28L29.60 18.82L32.07 18.82L30.83 15.28ZM41.14 22L38.69 22L38.69 13.47L41.21 13.47Q42.34 13.47 43.21 13.97Q44.09 14.48 44.57 15.40Q45.05 16.33 45.05 17.52L45.05 17.52L45.05 17.95Q45.05 19.16 44.57 20.08Q44.08 21.00 43.19 21.50Q42.30 22 41.14 22L41.14 22ZM40.17 14.66L40.17 20.82L41.14 20.82Q42.30 20.82 42.93 20.09Q43.55 19.36 43.56 17.99L43.56 17.99L43.56 17.52Q43.56 16.13 42.96 15.40Q42.35 14.66 41.21 14.66L41.21 14.66L40.17 14.66ZM55.09 22L49.51 22L49.51 13.47L55.05 13.47L55.05 14.66L51.00 14.66L51.00 17.02L54.50 17.02L54.50 18.19L51.00 18.19L51.00 20.82L55.09 20.82L55.09 22ZM66.65 22L64.68 13.47L66.15 13.47L67.47 19.88L69.10 13.47L70.34 13.47L71.96 19.89L73.27 13.47L74.74 13.47L72.77 22L71.35 22L69.73 15.77L68.07 22L66.65 22ZM80.38 22L78.90 22L78.90 13.47L80.38 13.47L80.38 22ZM86.87 14.66L84.23 14.66L84.23 13.47L91.00 13.47L91.00 14.66L88.34 14.66L88.34 22L86.87 22L86.87 14.66ZM96.24 22L94.75 22L94.75 13.47L96.24 13.47L96.24 17.02L100.05 17.02L100.05 13.47L101.53 13.47L101.53 22L100.05 22L100.05 18.21L96.24 18.21L96.24 22Z" fill="#FFFFFF"/><path class="svg__text" d="M129.29 15.48L126.71 15.48L126.71 13.60L134.23 13.60L134.23 15.48L131.66 15.48L131.66 22L129.29 22L129.29 15.48ZM140.96 22L138.60 22L138.60 13.60L140.96 13.60L140.96 17.09L144.21 13.60L146.82 13.60L143.39 17.32L147.00 22L144.24 22L141.84 18.95L140.96 19.90L140.96 22ZM153.49 22L151.11 22L151.11 13.60L153.49 13.60L153.49 22ZM161.00 22L158.66 22L158.66 13.60L160.62 13.60L164.33 18.07L164.33 13.60L166.66 13.60L166.66 22L164.70 22L161.00 17.52L161.00 22ZM173.61 15.48L171.03 15.48L171.03 13.60L178.55 13.60L178.55 15.48L175.98 15.48L175.98 22L173.61 22L173.61 15.48ZM189.67 22L182.92 22L182.92 13.60L189.51 13.60L189.51 15.44L185.28 15.44L185.28 16.85L189.01 16.85L189.01 18.63L185.28 18.63L185.28 20.17L189.67 20.17L189.67 22ZM196.85 22L194.47 22L194.47 13.60L198.31 13.60Q199.46 13.60 200.29 13.98Q201.13 14.35 201.59 15.06Q202.05 15.76 202.05 16.71L202.05 16.71Q202.05 17.62 201.62 18.30Q201.19 18.98 200.40 19.36L200.40 19.36L202.21 22L199.67 22L198.14 19.77L196.85 19.77L196.85 22ZM196.85 15.47L196.85 17.93L198.17 17.93Q198.90 17.93 199.27 17.61Q199.64 17.29 199.64 16.71L199.64 16.71Q199.64 16.12 199.27 15.79Q198.90 15.47 198.17 15.47L198.17 15.47L196.85 15.47Z" fill="#FFFFFF" x="126.31"/></svg>